<svg width="32" height="32" viewBox="0 0 32 32" fill="none" xmlns="http://www.w3.org/2000/svg">
<path fill-rule="evenodd" clip-rule="evenodd" d="M30.48 6.84999C29.55 7.26999 28.53 7.51999 27.53 7.68999C28 7.60999 28.71 6.74999 28.98 6.39999C29.41 5.86999 29.76 5.26999 29.96 4.60999C29.99 4.55999 30 4.48999 29.96 4.45999C29.9 4.42999 29.85 4.44999 29.8 4.46999C28.68 5.06999 27.53 5.49999 26.3 5.80999C26.2 5.83999 26.12 5.80999 26.06 5.74999C25.96 5.63999 25.86 5.52999 25.75 5.43999C24.51 4.37999 22.92 3.89999 21.35 4.00999C21.35 4.00999 21.36 4.00999 21.37 4.00999H21.25C21.25 4.00999 21.28 4.00999 21.29 4.01999C20.42 4.08999 19.56 4.33999 18.77 4.78999C16.47 6.08999 15.36 8.63999 15.74 11.2C15.76 11.34 15.74 11.36 15.62 11.34C10.81 10.62 6.81999 8.89999 3.58999 5.20999C3.44999 5.04999 3.36999 5.04999 3.25999 5.21999C1.83999 7.33999 2.52999 10.75 4.29999 12.43C4.53999 12.65 4.77999 12.88 5.03999 13.08C4.93999 13.1 3.76999 12.97 2.71999 12.43C2.57999 12.34 2.50999 12.39 2.49999 12.55C2.48999 12.78 2.49999 12.99 2.53999 13.24C2.80999 15.39 4.29999 17.38 6.33999 18.16C6.57999 18.26 6.84999 18.35 7.10999 18.4C6.64999 18.5 6.16999 18.57 4.82999 18.47C4.65999 18.44 4.59999 18.52 4.65999 18.68C5.65999 21.41 7.82999 22.22 9.44999 22.69C9.66999 22.73 9.87999 22.73 10.1 22.78C10.09 22.8 10.07 22.8 10.06 22.82C9.51999 23.64 7.65999 24.25 6.78999 24.55C5.20999 25.1 3.48999 25.35 1.82999 25.19C1.55999 25.15 1.50999 25.15 1.42999 25.19C1.35999 25.24 1.42999 25.3 1.50999 25.37C1.84999 25.59 2.18999 25.79 2.53999 25.98C3.59999 26.54 4.69999 26.99 5.85999 27.31C12.57 29.16 19.95 27.28 24.26 21.65C26.79 18.35 27.77 14.27 27.77 10.17C27.77 9.97999 27.99 9.87999 28.13 9.77999C29.04 9.08999 29.77 8.26999 30.45 7.34999C30.6 7.13999 30.59 6.95999 30.59 6.87999V6.84999C30.59 6.76999 30.59 6.79999 30.48 6.84999Z" fill="#F5F5F5"/>
</svg>
