<svg width="32" height="32" viewBox="0 0 32 32" fill="none" xmlns="http://www.w3.org/2000/svg">
<path fill-rule="evenodd" clip-rule="evenodd" d="M15.71 4.03C9.76 4.44 5.01 9.38 4.82 15.34C4.74 17.75 5.39 20.08 6.69 22.08L3.75 28C3.84 28 11.02 26.06 11.02 26.06C12.71 26.97 14.61 27.44 16.54 27.44C23 27.44 28.26 22.18 28.26 15.72C28.26 9.26 22.55 3.56 15.71 4.03ZM16.53 25.4C14.82 25.4 13.13 24.94 11.66 24.08C11.5 23.99 11.29 23.84 11.29 23.84C11.29 23.84 10.96 23.95 10.87 23.97L7.66 24.85L9.03 21.83C7.48 19.92 6.72 17.56 6.87 15.1C7.16 10.3 11.04 6.39 15.84 6.06C21.48 5.67 26.2 10.15 26.2 15.71C26.2 21.27 21.86 25.39 16.52 25.39L16.53 25.4Z" fill="#F5F5F5"/>
<path fill-rule="evenodd" clip-rule="evenodd" d="M21.0399 17.48C20.5499 17.19 19.9099 16.86 19.3299 17.1C18.8899 17.28 18.5999 17.98 18.3199 18.33C18.1699 18.51 17.9999 18.54 17.7699 18.45C16.0999 17.79 14.8299 16.67 13.9099 15.14C13.7499 14.9 13.7799 14.71 13.9699 14.49C14.2499 14.16 14.5999 13.79 14.6699 13.35C14.7499 12.91 14.5399 12.39 14.3599 12C14.1299 11.5 13.8699 10.78 13.3699 10.5C12.9099 10.24 12.2999 10.39 11.8899 10.72C11.1799 11.3 10.8399 12.2 10.8499 13.1C10.8499 13.36 10.8799 13.61 10.9399 13.86C11.4399 15.91 12.8499 17.64 14.4999 18.89C15.9199 19.97 18.2699 21.43 20.1399 21.08C21.0499 20.91 21.9399 20.35 22.2999 19.47C22.4099 19.21 22.4599 18.92 22.3999 18.65C22.2799 18.09 21.5099 17.75 21.0499 17.48H21.0399Z" fill="#F5F5F5"/>
</svg>
