<svg width="50" height="72" viewBox="0 0 50 72" fill="none" xmlns="http://www.w3.org/2000/svg">
<path d="M31 13.2812C29.125 13.2812 27.5104 12.6562 26.1562 11.4062C24.9062 10.0521 24.2812 8.48958 24.2812 6.71875C24.2812 4.84375 24.9062 3.28125 26.1562 2.03125C27.5104 0.677083 29.125 0 31 0C32.875 0 34.4375 0.677083 35.6875 2.03125C37.0417 3.28125 37.7188 4.84375 37.7188 6.71875C37.7188 8.48958 37.0417 10.0521 35.6875 11.4062C34.4375 12.6562 32.875 13.2812 31 13.2812ZM44.2812 30.9375V25H49.2812V71.7188H44.2812V37.8125C41.6771 37.2917 39.2292 36.3542 36.9375 35C34.6458 33.5417 32.6667 31.875 31 30L28.9688 40L36 46.7188V71.7188H29.2812V51.7188L22.4062 45L16.3125 71.7188H9.28125C9.28125 71.7188 9.4375 70.8333 9.75 69.0625C10.1667 67.2917 10.6354 64.9479 11.1562 62.0312C11.7812 59.0104 12.4583 55.7292 13.1875 52.1875C13.9167 48.6458 14.5938 45.1042 15.2188 41.5625C15.9479 37.9167 16.625 34.5312 17.25 31.4062C17.875 28.2812 18.3958 25.6771 18.8125 23.5938C19.2292 21.5104 19.4896 20.2604 19.5938 19.8438C19.9062 18.2812 20.6354 17.0833 21.7812 16.25C23.0312 15.4167 24.2812 15 25.5312 15C26.7812 15 27.9271 15.3125 28.9688 15.9375C30.1146 16.4583 31 17.2396 31.625 18.2812L35.0625 23.5938C36 25.3646 37.25 26.875 38.8125 28.125C40.4792 29.375 42.3021 30.3125 44.2812 30.9375ZM10.8438 38.75L15.2188 15.9375L11.4688 15.1562C9.59375 14.7396 7.875 15.0521 6.3125 16.0938C4.85417 17.1354 3.96875 18.5938 3.65625 20.4688L1 33.4375C0.895833 34.375 1.10417 35.2604 1.625 36.0938C2.14583 36.8229 2.82292 37.2396 3.65625 37.3438L10.8438 38.75Z" fill="#8C8C8C"/>
</svg>
