<svg width="74" height="74" viewBox="0 0 74 74" fill="none" xmlns="http://www.w3.org/2000/svg">
<path d="M30.2812 66.8438V60.2812C28.5104 60.2812 26.9479 59.6562 25.5938 58.4062C24.3438 57.0521 23.7188 55.4896 23.7188 53.7188V50.2812L7.625 34.3438C7.20833 36.0104 7 37.9896 7 40.2812C7 47.0521 9.23958 52.9896 13.7188 58.0938C18.1979 63.0938 23.7188 66.0104 30.2812 66.8438ZM60.125 37H66.8438C66.9479 37.7292 67 38.8229 67 40.2812C67 49.5521 63.7188 57.4688 57.1562 64.0312C50.6979 70.4896 42.8854 73.7188 33.7188 73.7188C24.4479 73.7188 16.5312 70.4896 9.96875 64.0312C3.51042 57.4688 0.28125 49.5521 0.28125 40.2812C0.28125 31.1146 3.51042 23.3021 9.96875 16.8438C16.5312 10.2812 24.4479 7 33.7188 7C36.9479 7 40.2812 7.52083 43.7188 8.5625V17C43.7188 18.7708 43.0417 20.3333 41.6875 21.6875C40.3333 23.0417 38.7708 23.7188 37 23.7188H30.2812V30.2812C30.2812 31.2188 29.9688 32.0521 29.3438 32.7812C28.7188 33.4062 27.9375 33.7188 27 33.7188H20.2812V40.2812H40.2812C41.2188 40.2812 42 40.6458 42.625 41.375C43.3542 42 43.7188 42.7812 43.7188 43.7188V53.7188H47C50.2292 53.7188 52.3646 55.2292 53.4062 58.25C57.9896 53.3542 60.2812 47.3646 60.2812 40.2812C60.2812 38.8229 60.2292 37.7292 60.125 37ZM67.625 10.2812V8.71875C67.625 7.15625 67.0521 5.80208 65.9062 4.65625C64.8646 3.51042 63.5625 2.9375 62 2.9375C60.4375 2.9375 59.0833 3.51042 57.9375 4.65625C56.8958 5.80208 56.375 7.15625 56.375 8.71875V10.2812H67.625ZM70.2812 10.2812C71.2188 10.2812 72 10.6458 72.625 11.375C73.3542 12 73.7188 12.7812 73.7188 13.7188V27C73.7188 27.9375 73.3542 28.7188 72.625 29.3438C72 29.9688 71.2188 30.2812 70.2812 30.2812H53.7188C52.7812 30.2812 51.9479 29.9688 51.2188 29.3438C50.5938 28.7188 50.2812 27.9375 50.2812 27V13.7188C50.2812 12.7812 50.5938 12 51.2188 11.375C51.9479 10.6458 52.7812 10.2812 53.7188 10.2812V8.71875C53.7188 6.42708 54.5 4.44792 56.0625 2.78125C57.7292 1.11458 59.7083 0.28125 62 0.28125C64.2917 0.28125 66.2188 1.11458 67.7812 2.78125C69.4479 4.44792 70.2812 6.42708 70.2812 8.71875V10.2812Z" fill="#8C8C8C"/>
</svg>
