<svg width="74" height="48" viewBox="0 0 74 48" fill="none" xmlns="http://www.w3.org/2000/svg">
<path d="M47 20.7188H63.7188L50.2812 7.28125H47V20.7188ZM51.6875 40.875C52.7292 41.8125 53.9271 42.2812 55.2812 42.2812C56.6354 42.2812 57.7812 41.8125 58.7188 40.875C59.7604 39.8333 60.2812 38.6354 60.2812 37.2812C60.2812 35.9271 59.7604 34.7812 58.7188 33.8438C57.7812 32.8021 56.6354 32.2812 55.2812 32.2812C53.9271 32.2812 52.7292 32.8021 51.6875 33.8438C50.75 34.7812 50.2812 35.9271 50.2812 37.2812C50.2812 38.6354 50.75 39.8333 51.6875 40.875ZM40.2812 20.7188V7.28125H27V20.7188H40.2812ZM13.4062 40.875C14.3438 41.8125 15.5417 42.2812 17 42.2812C18.4583 42.2812 19.6562 41.8125 20.5938 40.875C21.5312 39.8333 22 38.6354 22 37.2812C22 35.9271 21.5312 34.7812 20.5938 33.8438C19.6562 32.8021 18.4583 32.2812 17 32.2812C15.5417 32.2812 14.3438 32.8021 13.4062 33.8438C12.4688 34.7812 12 35.9271 12 37.2812C12 38.6354 12.4688 39.8333 13.4062 40.875ZM7 20.7188H20.2812V7.28125H7V20.7188ZM53.7188 0.71875L73.7188 20.7188V37.2812H65.2812C65.2812 39.9896 64.2917 42.3333 62.3125 44.3125C60.3333 46.2917 57.9896 47.2812 55.2812 47.2812C52.5729 47.2812 50.2292 46.2917 48.25 44.3125C46.2708 42.3333 45.2812 39.9896 45.2812 37.2812H27C27 39.9896 26.0104 42.3333 24.0312 44.3125C22.0521 46.2917 19.7083 47.2812 17 47.2812C14.2917 47.2812 11.9479 46.2917 9.96875 44.3125C7.98958 42.3333 7 39.9896 7 37.2812H0.28125V7.28125C0.28125 5.40625 0.90625 3.84375 2.15625 2.59375C3.51042 1.34375 5.125 0.71875 7 0.71875H53.7188Z" fill="#8C8C8C"/>
</svg>
